<svg width="340" height="235" viewBox="0 0 340 235" fill="none" xmlns="http://www.w3.org/2000/svg">
<path d="M1 32H339V227C339 230.866 335.866 234 332 234H8C4.13401 234 1 230.866 1 227V32ZM339 30H1V8C1 4.13401 4.13401 1 8 1H332C335.866 1 339 4.13401 339 8V30ZM36.8816 17.9145C38.7962 16.4254 38.89 13.5643 37.0773 11.9529C35.6074 10.6464 33.3926 10.6464 31.9227 11.9529C30.11 13.5643 30.2038 16.4254 32.1184 17.9145C33.5192 19.004 35.4808 19.004 36.8816 17.9145ZM35.7485 13.4478C36.6267 14.2284 36.5812 15.6144 35.6538 16.3358C34.9751 16.8636 34.0249 16.8636 33.3462 16.3358C32.4188 15.6144 32.3733 14.2284 33.2515 13.4478C33.9635 12.8148 35.0365 12.8148 35.7485 13.4478ZM49.8816 17.9145C51.7962 16.4254 51.89 13.5643 50.0773 11.9529C48.6074 10.6464 46.3926 10.6464 44.9227 11.9529C43.11 13.5643 43.2038 16.4254 45.1184 17.9145C46.5192 19.004 48.4808 19.004 49.8816 17.9145ZM48.7485 13.4478C49.6267 14.2284 49.5812 15.6144 48.6538 16.3358C47.9751 16.8636 47.0249 16.8636 46.3462 16.3358C45.4188 15.6144 45.3733 14.2284 46.2515 13.4478C46.9635 12.8148 48.0365 12.8148 48.7485 13.4478ZM23.8816 17.9145C25.7962 16.4254 25.89 13.5643 24.0773 11.9529C22.6074 10.6464 20.3926 10.6464 18.9227 11.9529C17.11 13.5643 17.2038 16.4254 19.1184 17.9145C20.5192 19.004 22.4808 19.004 23.8816 17.9145ZM22.7485 13.4478C23.6267 14.2284 23.5812 15.6144 22.6538 16.3358C21.9751 16.8636 21.0249 16.8636 20.3462 16.3358C19.4188 15.6144 19.3733 14.2284 20.2515 13.4478C20.9635 12.8148 22.0365 12.8148 22.7485 13.4478Z" stroke="white" stroke-width="2"/>
<rect x="11.5" y="39.5" width="316" height="39" rx="1.5" stroke="white"/>
<path d="M31.88 58.098C32.27 57.684 32.702 57.354 33.176 57.108C33.65 56.862 34.196 56.739 34.814 56.739C35.312 56.739 35.75 56.823 36.128 56.991C36.512 57.153 36.83 57.387 37.082 57.693C37.34 57.993 37.535 58.356 37.667 58.782C37.799 59.208 37.865 59.679 37.865 60.195V66H36.254V60.195C36.254 59.505 36.095 58.971 35.777 58.593C35.465 58.209 34.988 58.017 34.346 58.017C33.872 58.017 33.428 58.131 33.014 58.359C32.606 58.587 32.228 58.896 31.88 59.286V66H30.269V52.743H31.88V58.098ZM42.9821 66.144C42.2621 66.144 41.7071 65.943 41.3171 65.541C40.9331 65.139 40.7411 64.56 40.7411 63.804V58.224H39.6431C39.5471 58.224 39.4661 58.197 39.4001 58.143C39.3341 58.083 39.3011 57.993 39.3011 57.873V57.234L40.7951 57.045L41.1641 54.228C41.1821 54.138 41.2211 54.066 41.2811 54.012C41.3471 53.952 41.4311 53.922 41.5331 53.922H42.3431V57.063H46.6361L47.0051 54.228C47.0231 54.138 47.0621 54.066 47.1221 54.012C47.1881 53.952 47.2721 53.922 47.3741 53.922H48.1841V57.063H50.8211V58.224H48.1841V63.696C48.1841 64.08 48.2771 64.365 48.4631 64.551C48.6551 64.737 48.8951 64.83 49.1831 64.83C49.3511 64.83 49.4951 64.809 49.6151 64.767C49.7411 64.719 49.8491 64.668 49.9391 64.614C50.0291 64.56 50.1041 64.512 50.1641 64.47C50.2301 64.422 50.2871 64.398 50.3351 64.398C50.4251 64.398 50.5001 64.449 50.5601 64.551L51.0371 65.316C50.7551 65.574 50.4191 65.778 50.0291 65.928C49.6391 66.072 49.2371 66.144 48.8231 66.144C48.1091 66.144 47.5571 65.943 47.1671 65.541C46.7771 65.139 46.5821 64.56 46.5821 63.804V58.224H42.3431V63.696C42.3431 64.08 42.4361 64.365 42.6221 64.551C42.8081 64.737 43.0481 64.83 43.3421 64.83C43.5101 64.83 43.6541 64.809 43.7741 64.767C43.9001 64.719 44.0081 64.668 44.0981 64.614C44.1881 64.56 44.2631 64.512 44.3231 64.47C44.3891 64.422 44.4461 64.398 44.4941 64.398C44.5781 64.398 44.6531 64.449 44.7191 64.551L45.1871 65.316C44.9111 65.574 44.5781 65.778 44.1881 65.928C43.7981 66.072 43.3961 66.144 42.9821 66.144ZM54.0812 63.804C54.3752 64.2 54.6962 64.479 55.0442 64.641C55.3922 64.803 55.7822 64.884 56.2142 64.884C57.0662 64.884 57.7202 64.581 58.1762 63.975C58.6322 63.369 58.8602 62.505 58.8602 61.383C58.8602 60.789 58.8062 60.279 58.6982 59.853C58.5962 59.427 58.4462 59.079 58.2482 58.809C58.0502 58.533 57.8072 58.332 57.5192 58.206C57.2312 58.08 56.9042 58.017 56.5382 58.017C56.0162 58.017 55.5572 58.137 55.1612 58.377C54.7712 58.617 54.4112 58.956 54.0812 59.394V63.804ZM54.0002 58.296C54.3842 57.822 54.8282 57.441 55.3322 57.153C55.8362 56.865 56.4122 56.721 57.0602 56.721C57.5882 56.721 58.0652 56.823 58.4912 57.027C58.9172 57.225 59.2802 57.522 59.5802 57.918C59.8802 58.308 60.1112 58.794 60.2732 59.376C60.4352 59.958 60.5162 60.627 60.5162 61.383C60.5162 62.055 60.4262 62.682 60.2462 63.264C60.0662 63.84 59.8052 64.341 59.4632 64.767C59.1272 65.187 58.7132 65.52 58.2212 65.766C57.7352 66.006 57.1862 66.126 56.5742 66.126C56.0162 66.126 55.5362 66.033 55.1342 65.847C54.7382 65.655 54.3872 65.391 54.0812 65.055V69.087H52.4702V56.883H53.4332C53.6612 56.883 53.8022 56.994 53.8562 57.216L54.0002 58.296ZM62.416 65.01C62.416 64.854 62.443 64.707 62.497 64.569C62.557 64.431 62.635 64.311 62.731 64.209C62.833 64.107 62.953 64.026 63.091 63.966C63.229 63.906 63.376 63.876 63.532 63.876C63.688 63.876 63.835 63.906 63.973 63.966C64.111 64.026 64.231 64.107 64.333 64.209C64.435 64.311 64.516 64.431 64.576 64.569C64.636 64.707 64.666 64.854 64.666 65.01C64.666 65.172 64.636 65.322 64.576 65.46C64.516 65.592 64.435 65.709 64.333 65.811C64.231 65.913 64.111 65.991 63.973 66.045C63.835 66.105 63.688 66.135 63.532 66.135C63.376 66.135 63.229 66.105 63.091 66.045C62.953 65.991 62.833 65.913 62.731 65.811C62.635 65.709 62.557 65.592 62.497 65.46C62.443 65.322 62.416 65.172 62.416 65.01ZM62.416 58.26C62.416 58.104 62.443 57.957 62.497 57.819C62.557 57.681 62.635 57.561 62.731 57.459C62.833 57.357 62.953 57.276 63.091 57.216C63.229 57.156 63.376 57.126 63.532 57.126C63.688 57.126 63.835 57.156 63.973 57.216C64.111 57.276 64.231 57.357 64.333 57.459C64.435 57.561 64.516 57.681 64.576 57.819C64.636 57.957 64.666 58.104 64.666 58.26C64.666 58.422 64.636 58.572 64.576 58.71C64.516 58.842 64.435 58.959 64.333 59.061C64.231 59.163 64.111 59.244 63.973 59.304C63.835 59.358 63.688 59.385 63.532 59.385C63.376 59.385 63.229 59.358 63.091 59.304C62.953 59.244 62.833 59.163 62.731 59.061C62.635 58.959 62.557 58.842 62.497 58.71C62.443 58.572 62.416 58.422 62.416 58.26ZM67.942 66.189C67.864 66.399 67.741 66.555 67.573 66.657C67.411 66.759 67.243 66.81 67.069 66.81H66.394L71.803 53.337C71.875 53.145 71.983 52.998 72.127 52.896C72.277 52.794 72.448 52.743 72.64 52.743H73.324L67.942 66.189ZM72.0553 66.189C71.9773 66.399 71.8543 66.555 71.6863 66.657C71.5243 66.759 71.3563 66.81 71.1823 66.81H70.5073L75.9163 53.337C75.9883 53.145 76.0963 52.998 76.2403 52.896C76.3903 52.794 76.5613 52.743 76.7533 52.743H77.4373L72.0553 66.189ZM81.004 56.883V66H79.402V56.883H81.004ZM81.346 54.021C81.346 54.177 81.313 54.324 81.247 54.462C81.187 54.594 81.103 54.714 80.995 54.822C80.893 54.924 80.77 55.005 80.626 55.065C80.488 55.125 80.341 55.155 80.185 55.155C80.029 55.155 79.882 55.125 79.744 55.065C79.612 55.005 79.495 54.924 79.393 54.822C79.291 54.714 79.21 54.594 79.15 54.462C79.09 54.324 79.06 54.177 79.06 54.021C79.06 53.865 79.09 53.718 79.15 53.58C79.21 53.436 79.291 53.313 79.393 53.211C79.495 53.103 79.612 53.019 79.744 52.959C79.882 52.899 80.029 52.869 80.185 52.869C80.341 52.869 80.488 52.899 80.626 52.959C80.77 53.019 80.893 53.103 80.995 53.211C81.103 53.313 81.187 53.436 81.247 53.58C81.313 53.718 81.346 53.865 81.346 54.021ZM85.2472 63.804C85.5412 64.2 85.8622 64.479 86.2102 64.641C86.5582 64.803 86.9482 64.884 87.3802 64.884C88.2322 64.884 88.8862 64.581 89.3422 63.975C89.7982 63.369 90.0262 62.505 90.0262 61.383C90.0262 60.789 89.9722 60.279 89.8642 59.853C89.7622 59.427 89.6122 59.079 89.4142 58.809C89.2162 58.533 88.9732 58.332 88.6852 58.206C88.3972 58.08 88.0702 58.017 87.7042 58.017C87.1822 58.017 86.7232 58.137 86.3272 58.377C85.9372 58.617 85.5772 58.956 85.2472 59.394V63.804ZM85.1662 58.296C85.5502 57.822 85.9942 57.441 86.4982 57.153C87.0022 56.865 87.5782 56.721 88.2262 56.721C88.7542 56.721 89.2312 56.823 89.6572 57.027C90.0832 57.225 90.4462 57.522 90.7462 57.918C91.0462 58.308 91.2772 58.794 91.4392 59.376C91.6012 59.958 91.6822 60.627 91.6822 61.383C91.6822 62.055 91.5922 62.682 91.4122 63.264C91.2322 63.84 90.9712 64.341 90.6292 64.767C90.2932 65.187 89.8792 65.52 89.3872 65.766C88.9012 66.006 88.3522 66.126 87.7402 66.126C87.1822 66.126 86.7022 66.033 86.3002 65.847C85.9042 65.655 85.5532 65.391 85.2472 65.055V69.087H83.6362V56.883H84.5992C84.8272 56.883 84.9682 56.994 85.0222 57.216L85.1662 58.296ZM93.582 59.925H98.028V61.284H93.582V59.925ZM105.347 61.896C104.609 61.92 103.979 61.98 103.457 62.076C102.941 62.166 102.518 62.286 102.188 62.436C101.864 62.586 101.627 62.763 101.477 62.967C101.333 63.171 101.261 63.399 101.261 63.651C101.261 63.891 101.3 64.098 101.378 64.272C101.456 64.446 101.561 64.59 101.693 64.704C101.831 64.812 101.99 64.893 102.17 64.947C102.356 64.995 102.554 65.019 102.764 65.019C103.046 65.019 103.304 64.992 103.538 64.938C103.772 64.878 103.991 64.794 104.195 64.686C104.405 64.578 104.603 64.449 104.789 64.299C104.981 64.149 105.167 63.978 105.347 63.786V61.896ZM100.172 58.17C100.676 57.684 101.219 57.321 101.801 57.081C102.383 56.841 103.028 56.721 103.736 56.721C104.246 56.721 104.699 56.805 105.095 56.973C105.491 57.141 105.824 57.375 106.094 57.675C106.364 57.975 106.568 58.338 106.706 58.764C106.844 59.19 106.913 59.658 106.913 60.168V66H106.202C106.046 66 105.926 65.976 105.842 65.928C105.758 65.874 105.692 65.772 105.644 65.622L105.464 64.758C105.224 64.98 104.99 65.178 104.762 65.352C104.534 65.52 104.294 65.664 104.042 65.784C103.79 65.898 103.52 65.985 103.232 66.045C102.95 66.111 102.635 66.144 102.287 66.144C101.933 66.144 101.6 66.096 101.288 66C100.976 65.898 100.703 65.748 100.469 65.55C100.241 65.352 100.058 65.103 99.9197 64.803C99.7877 64.497 99.7217 64.137 99.7217 63.723C99.7217 63.363 99.8207 63.018 100.019 62.688C100.217 62.352 100.538 62.055 100.982 61.797C101.426 61.539 102.005 61.329 102.719 61.167C103.433 60.999 104.309 60.903 105.347 60.879V60.168C105.347 59.46 105.194 58.926 104.888 58.566C104.582 58.2 104.135 58.017 103.547 58.017C103.151 58.017 102.818 58.068 102.548 58.17C102.284 58.266 102.053 58.377 101.855 58.503C101.663 58.623 101.495 58.734 101.351 58.836C101.213 58.932 101.075 58.98 100.937 58.98C100.829 58.98 100.736 58.953 100.658 58.899C100.58 58.839 100.514 58.767 100.46 58.683L100.172 58.17ZM115.293 59.052C114.993 58.65 114.669 58.371 114.321 58.215C113.973 58.053 113.583 57.972 113.151 57.972C112.305 57.972 111.654 58.275 111.198 58.881C110.742 59.487 110.514 60.351 110.514 61.473C110.514 62.067 110.565 62.577 110.667 63.003C110.769 63.423 110.919 63.771 111.117 64.047C111.315 64.317 111.558 64.515 111.846 64.641C112.134 64.767 112.461 64.83 112.827 64.83C113.355 64.83 113.814 64.71 114.204 64.47C114.6 64.23 114.963 63.891 115.293 63.453V59.052ZM116.895 52.743V66H115.941C115.713 66 115.569 65.889 115.509 65.667L115.365 64.56C114.975 65.028 114.531 65.406 114.033 65.694C113.535 65.982 112.959 66.126 112.305 66.126C111.783 66.126 111.309 66.027 110.883 65.829C110.457 65.625 110.094 65.328 109.794 64.938C109.494 64.548 109.263 64.062 109.101 63.48C108.939 62.898 108.858 62.229 108.858 61.473C108.858 60.801 108.948 60.177 109.128 59.601C109.308 59.019 109.566 58.515 109.902 58.089C110.238 57.663 110.649 57.33 111.135 57.09C111.627 56.844 112.179 56.721 112.791 56.721C113.349 56.721 113.826 56.817 114.222 57.009C114.624 57.195 114.981 57.456 115.293 57.792V52.743H116.895ZM125.365 59.052C125.065 58.65 124.741 58.371 124.393 58.215C124.045 58.053 123.655 57.972 123.223 57.972C122.377 57.972 121.726 58.275 121.27 58.881C120.814 59.487 120.586 60.351 120.586 61.473C120.586 62.067 120.637 62.577 120.739 63.003C120.841 63.423 120.991 63.771 121.189 64.047C121.387 64.317 121.63 64.515 121.918 64.641C122.206 64.767 122.533 64.83 122.899 64.83C123.427 64.83 123.886 64.71 124.276 64.47C124.672 64.23 125.035 63.891 125.365 63.453V59.052ZM126.967 52.743V66H126.013C125.785 66 125.641 65.889 125.581 65.667L125.437 64.56C125.047 65.028 124.603 65.406 124.105 65.694C123.607 65.982 123.031 66.126 122.377 66.126C121.855 66.126 121.381 66.027 120.955 65.829C120.529 65.625 120.166 65.328 119.866 64.938C119.566 64.548 119.335 64.062 119.173 63.48C119.011 62.898 118.93 62.229 118.93 61.473C118.93 60.801 119.02 60.177 119.2 59.601C119.38 59.019 119.638 58.515 119.974 58.089C120.31 57.663 120.721 57.33 121.207 57.09C121.699 56.844 122.251 56.721 122.863 56.721C123.421 56.721 123.898 56.817 124.294 57.009C124.696 57.195 125.053 57.456 125.365 57.792V52.743H126.967ZM131.019 58.71C131.307 58.086 131.661 57.6 132.081 57.252C132.501 56.898 133.014 56.721 133.62 56.721C133.812 56.721 133.995 56.742 134.169 56.784C134.349 56.826 134.508 56.892 134.646 56.982L134.529 58.179C134.493 58.329 134.403 58.404 134.259 58.404C134.175 58.404 134.052 58.386 133.89 58.35C133.728 58.314 133.545 58.296 133.341 58.296C133.053 58.296 132.795 58.338 132.567 58.422C132.345 58.506 132.144 58.632 131.964 58.8C131.79 58.962 131.631 59.166 131.487 59.412C131.349 59.652 131.223 59.928 131.109 60.24V66H129.498V56.883H130.416C130.59 56.883 130.71 56.916 130.776 56.982C130.842 57.048 130.887 57.162 130.911 57.324L131.019 58.71ZM141.787 60.447C141.787 60.075 141.733 59.736 141.625 59.43C141.523 59.118 141.37 58.851 141.166 58.629C140.968 58.401 140.725 58.227 140.437 58.107C140.149 57.981 139.822 57.918 139.456 57.918C138.688 57.918 138.079 58.143 137.629 58.593C137.185 59.037 136.909 59.655 136.801 60.447H141.787ZM143.083 64.722C142.885 64.962 142.648 65.172 142.372 65.352C142.096 65.526 141.799 65.67 141.481 65.784C141.169 65.898 140.845 65.982 140.509 66.036C140.173 66.096 139.84 66.126 139.51 66.126C138.88 66.126 138.298 66.021 137.764 65.811C137.236 65.595 136.777 65.283 136.387 64.875C136.003 64.461 135.703 63.951 135.487 63.345C135.271 62.739 135.163 62.043 135.163 61.257C135.163 60.621 135.259 60.027 135.451 59.475C135.649 58.923 135.931 58.446 136.297 58.044C136.663 57.636 137.11 57.318 137.638 57.09C138.166 56.856 138.76 56.739 139.42 56.739C139.966 56.739 140.47 56.832 140.932 57.018C141.4 57.198 141.802 57.462 142.138 57.81C142.48 58.152 142.747 58.578 142.939 59.088C143.131 59.592 143.227 60.168 143.227 60.816C143.227 61.068 143.2 61.236 143.146 61.32C143.092 61.404 142.99 61.446 142.84 61.446H136.747C136.765 62.022 136.843 62.523 136.981 62.949C137.125 63.375 137.323 63.732 137.575 64.02C137.827 64.302 138.127 64.515 138.475 64.659C138.823 64.797 139.213 64.866 139.645 64.866C140.047 64.866 140.392 64.821 140.68 64.731C140.974 64.635 141.226 64.533 141.436 64.425C141.646 64.317 141.82 64.218 141.958 64.128C142.102 64.032 142.225 63.984 142.327 63.984C142.459 63.984 142.561 64.035 142.633 64.137L143.083 64.722ZM150.505 58.386C150.433 58.518 150.322 58.584 150.172 58.584C150.082 58.584 149.98 58.551 149.866 58.485C149.752 58.419 149.611 58.347 149.443 58.269C149.281 58.185 149.086 58.11 148.858 58.044C148.63 57.972 148.36 57.936 148.048 57.936C147.778 57.936 147.535 57.972 147.319 58.044C147.103 58.11 146.917 58.203 146.761 58.323C146.611 58.443 146.494 58.584 146.41 58.746C146.332 58.902 146.293 59.073 146.293 59.259C146.293 59.493 146.359 59.688 146.491 59.844C146.629 60 146.809 60.135 147.031 60.249C147.253 60.363 147.505 60.465 147.787 60.555C148.069 60.639 148.357 60.732 148.651 60.834C148.951 60.93 149.242 61.038 149.524 61.158C149.806 61.278 150.058 61.428 150.28 61.608C150.502 61.788 150.679 62.01 150.811 62.274C150.949 62.532 151.018 62.844 151.018 63.21C151.018 63.63 150.943 64.02 150.793 64.38C150.643 64.734 150.421 65.043 150.127 65.307C149.833 65.565 149.473 65.769 149.047 65.919C148.621 66.069 148.129 66.144 147.571 66.144C146.935 66.144 146.359 66.042 145.843 65.838C145.327 65.628 144.889 65.361 144.529 65.037L144.907 64.425C144.955 64.347 145.012 64.287 145.078 64.245C145.144 64.203 145.228 64.182 145.33 64.182C145.438 64.182 145.552 64.224 145.672 64.308C145.792 64.392 145.936 64.485 146.104 64.587C146.278 64.689 146.488 64.782 146.734 64.866C146.98 64.95 147.286 64.992 147.652 64.992C147.964 64.992 148.237 64.953 148.471 64.875C148.705 64.791 148.9 64.68 149.056 64.542C149.212 64.404 149.326 64.245 149.398 64.065C149.476 63.885 149.515 63.693 149.515 63.489C149.515 63.237 149.446 63.03 149.308 62.868C149.176 62.7 148.999 62.559 148.777 62.445C148.555 62.325 148.3 62.223 148.012 62.139C147.73 62.049 147.439 61.956 147.139 61.86C146.845 61.764 146.554 61.656 146.266 61.536C145.984 61.41 145.732 61.254 145.51 61.068C145.288 60.882 145.108 60.654 144.97 60.384C144.838 60.108 144.772 59.775 144.772 59.385C144.772 59.037 144.844 58.704 144.988 58.386C145.132 58.062 145.342 57.78 145.618 57.54C145.894 57.294 146.233 57.099 146.635 56.955C147.037 56.811 147.496 56.739 148.012 56.739C148.612 56.739 149.149 56.835 149.623 57.027C150.103 57.213 150.517 57.471 150.865 57.801L150.505 58.386ZM158.292 58.386C158.22 58.518 158.109 58.584 157.959 58.584C157.869 58.584 157.767 58.551 157.653 58.485C157.539 58.419 157.398 58.347 157.23 58.269C157.068 58.185 156.873 58.11 156.645 58.044C156.417 57.972 156.147 57.936 155.835 57.936C155.565 57.936 155.322 57.972 155.106 58.044C154.89 58.11 154.704 58.203 154.548 58.323C154.398 58.443 154.281 58.584 154.197 58.746C154.119 58.902 154.08 59.073 154.08 59.259C154.08 59.493 154.146 59.688 154.278 59.844C154.416 60 154.596 60.135 154.818 60.249C155.04 60.363 155.292 60.465 155.574 60.555C155.856 60.639 156.144 60.732 156.438 60.834C156.738 60.93 157.029 61.038 157.311 61.158C157.593 61.278 157.845 61.428 158.067 61.608C158.289 61.788 158.466 62.01 158.598 62.274C158.736 62.532 158.805 62.844 158.805 63.21C158.805 63.63 158.73 64.02 158.58 64.38C158.43 64.734 158.208 65.043 157.914 65.307C157.62 65.565 157.26 65.769 156.834 65.919C156.408 66.069 155.916 66.144 155.358 66.144C154.722 66.144 154.146 66.042 153.63 65.838C153.114 65.628 152.676 65.361 152.316 65.037L152.694 64.425C152.742 64.347 152.799 64.287 152.865 64.245C152.931 64.203 153.015 64.182 153.117 64.182C153.225 64.182 153.339 64.224 153.459 64.308C153.579 64.392 153.723 64.485 153.891 64.587C154.065 64.689 154.275 64.782 154.521 64.866C154.767 64.95 155.073 64.992 155.439 64.992C155.751 64.992 156.024 64.953 156.258 64.875C156.492 64.791 156.687 64.68 156.843 64.542C156.999 64.404 157.113 64.245 157.185 64.065C157.263 63.885 157.302 63.693 157.302 63.489C157.302 63.237 157.233 63.03 157.095 62.868C156.963 62.7 156.786 62.559 156.564 62.445C156.342 62.325 156.087 62.223 155.799 62.139C155.517 62.049 155.226 61.956 154.926 61.86C154.632 61.764 154.341 61.656 154.053 61.536C153.771 61.41 153.519 61.254 153.297 61.068C153.075 60.882 152.895 60.654 152.757 60.384C152.625 60.108 152.559 59.775 152.559 59.385C152.559 59.037 152.631 58.704 152.775 58.386C152.919 58.062 153.129 57.78 153.405 57.54C153.681 57.294 154.02 57.099 154.422 56.955C154.824 56.811 155.283 56.739 155.799 56.739C156.399 56.739 156.936 56.835 157.41 57.027C157.89 57.213 158.304 57.471 158.652 57.801L158.292 58.386ZM160.625 65.01C160.625 64.854 160.652 64.707 160.706 64.569C160.766 64.431 160.844 64.311 160.94 64.209C161.042 64.107 161.162 64.026 161.3 63.966C161.438 63.906 161.585 63.876 161.741 63.876C161.897 63.876 162.044 63.906 162.182 63.966C162.32 64.026 162.44 64.107 162.542 64.209C162.644 64.311 162.725 64.431 162.785 64.569C162.845 64.707 162.875 64.854 162.875 65.01C162.875 65.172 162.845 65.322 162.785 65.46C162.725 65.592 162.644 65.709 162.542 65.811C162.44 65.913 162.32 65.991 162.182 66.045C162.044 66.105 161.897 66.135 161.741 66.135C161.585 66.135 161.438 66.105 161.3 66.045C161.162 65.991 161.042 65.913 160.94 65.811C160.844 65.709 160.766 65.592 160.706 65.46C160.652 65.322 160.625 65.172 160.625 65.01ZM160.625 58.26C160.625 58.104 160.652 57.957 160.706 57.819C160.766 57.681 160.844 57.561 160.94 57.459C161.042 57.357 161.162 57.276 161.3 57.216C161.438 57.156 161.585 57.126 161.741 57.126C161.897 57.126 162.044 57.156 162.182 57.216C162.32 57.276 162.44 57.357 162.542 57.459C162.644 57.561 162.725 57.681 162.785 57.819C162.845 57.957 162.875 58.104 162.875 58.26C162.875 58.422 162.845 58.572 162.785 58.71C162.725 58.842 162.644 58.959 162.542 59.061C162.44 59.163 162.32 59.244 162.182 59.304C162.044 59.358 161.897 59.385 161.741 59.385C161.585 59.385 161.438 59.358 161.3 59.304C161.162 59.244 161.042 59.163 160.94 59.061C160.844 58.959 160.766 58.842 160.706 58.71C160.652 58.572 160.625 58.422 160.625 58.26ZM169.22 64.866C169.64 64.866 170.015 64.809 170.345 64.695C170.681 64.575 170.963 64.41 171.191 64.2C171.425 63.984 171.602 63.729 171.722 63.435C171.848 63.135 171.911 62.805 171.911 62.445C171.911 62.001 171.836 61.623 171.686 61.311C171.542 60.993 171.344 60.735 171.092 60.537C170.846 60.339 170.561 60.195 170.237 60.105C169.913 60.009 169.574 59.961 169.22 59.961C168.866 59.961 168.527 60.009 168.203 60.105C167.879 60.195 167.591 60.339 167.339 60.537C167.093 60.735 166.895 60.993 166.745 61.311C166.601 61.623 166.529 62.001 166.529 62.445C166.529 62.805 166.589 63.135 166.709 63.435C166.835 63.729 167.012 63.984 167.24 64.2C167.474 64.41 167.756 64.575 168.086 64.695C168.422 64.809 168.8 64.866 169.22 64.866ZM169.22 54.201C168.836 54.201 168.497 54.258 168.203 54.372C167.915 54.486 167.672 54.642 167.474 54.84C167.282 55.038 167.135 55.269 167.033 55.533C166.937 55.797 166.889 56.079 166.889 56.379C166.889 56.673 166.931 56.958 167.015 57.234C167.099 57.51 167.234 57.756 167.42 57.972C167.606 58.182 167.846 58.353 168.14 58.485C168.44 58.611 168.8 58.674 169.22 58.674C169.64 58.674 169.997 58.611 170.291 58.485C170.591 58.353 170.834 58.182 171.02 57.972C171.206 57.756 171.341 57.51 171.425 57.234C171.509 56.958 171.551 56.673 171.551 56.379C171.551 56.079 171.5 55.797 171.398 55.533C171.302 55.269 171.155 55.038 170.957 54.84C170.765 54.642 170.522 54.486 170.228 54.372C169.94 54.258 169.604 54.201 169.22 54.201ZM171.065 59.277C171.869 59.505 172.487 59.886 172.919 60.42C173.351 60.954 173.567 61.638 173.567 62.472C173.567 63.036 173.459 63.546 173.243 64.002C173.033 64.452 172.736 64.836 172.352 65.154C171.974 65.472 171.518 65.718 170.984 65.892C170.45 66.06 169.862 66.144 169.22 66.144C168.578 66.144 167.99 66.06 167.456 65.892C166.922 65.718 166.463 65.472 166.079 65.154C165.695 64.836 165.398 64.452 165.188 64.002C164.978 63.546 164.873 63.036 164.873 62.472C164.873 61.638 165.089 60.954 165.521 60.42C165.953 59.886 166.571 59.505 167.375 59.277C166.697 59.025 166.184 58.65 165.836 58.152C165.494 57.648 165.323 57.048 165.323 56.352C165.323 55.878 165.416 55.434 165.602 55.02C165.788 54.606 166.052 54.246 166.394 53.94C166.736 53.634 167.144 53.394 167.618 53.22C168.098 53.046 168.632 52.959 169.22 52.959C169.802 52.959 170.333 53.046 170.813 53.22C171.293 53.394 171.704 53.634 172.046 53.94C172.388 54.246 172.652 54.606 172.838 55.02C173.024 55.434 173.117 55.878 173.117 56.352C173.117 57.048 172.943 57.648 172.595 58.152C172.253 58.65 171.743 59.025 171.065 59.277ZM184.341 59.556C184.341 60.684 184.218 61.662 183.972 62.49C183.732 63.312 183.402 63.993 182.982 64.533C182.562 65.073 182.064 65.475 181.488 65.739C180.918 66.003 180.306 66.135 179.652 66.135C178.992 66.135 178.377 66.003 177.807 65.739C177.243 65.475 176.751 65.073 176.331 64.533C175.911 63.993 175.581 63.312 175.341 62.49C175.101 61.662 174.981 60.684 174.981 59.556C174.981 58.428 175.101 57.45 175.341 56.622C175.581 55.794 175.911 55.11 176.331 54.57C176.751 54.024 177.243 53.619 177.807 53.355C178.377 53.091 178.992 52.959 179.652 52.959C180.306 52.959 180.918 53.091 181.488 53.355C182.064 53.619 182.562 54.024 182.982 54.57C183.402 55.11 183.732 55.794 183.972 56.622C184.218 57.45 184.341 58.428 184.341 59.556ZM182.676 59.556C182.676 58.572 182.592 57.747 182.424 57.081C182.262 56.409 182.04 55.869 181.758 55.461C181.482 55.053 181.161 54.762 180.795 54.588C180.429 54.408 180.048 54.318 179.652 54.318C179.256 54.318 178.875 54.408 178.509 54.588C178.143 54.762 177.822 55.053 177.546 55.461C177.27 55.869 177.048 56.409 176.88 57.081C176.718 57.747 176.637 58.572 176.637 59.556C176.637 60.54 176.718 61.365 176.88 62.031C177.048 62.697 177.27 63.234 177.546 63.642C177.822 64.05 178.143 64.344 178.509 64.524C178.875 64.698 179.256 64.785 179.652 64.785C180.048 64.785 180.429 64.698 180.795 64.524C181.161 64.344 181.482 64.05 181.758 63.642C182.04 63.234 182.262 62.697 182.424 62.031C182.592 61.365 182.676 60.54 182.676 59.556ZM190.103 64.866C190.523 64.866 190.898 64.809 191.228 64.695C191.564 64.575 191.846 64.41 192.074 64.2C192.308 63.984 192.485 63.729 192.605 63.435C192.731 63.135 192.794 62.805 192.794 62.445C192.794 62.001 192.719 61.623 192.569 61.311C192.425 60.993 192.227 60.735 191.975 60.537C191.729 60.339 191.444 60.195 191.12 60.105C190.796 60.009 190.457 59.961 190.103 59.961C189.749 59.961 189.41 60.009 189.086 60.105C188.762 60.195 188.474 60.339 188.222 60.537C187.976 60.735 187.778 60.993 187.628 61.311C187.484 61.623 187.412 62.001 187.412 62.445C187.412 62.805 187.472 63.135 187.592 63.435C187.718 63.729 187.895 63.984 188.123 64.2C188.357 64.41 188.639 64.575 188.969 64.695C189.305 64.809 189.683 64.866 190.103 64.866ZM190.103 54.201C189.719 54.201 189.38 54.258 189.086 54.372C188.798 54.486 188.555 54.642 188.357 54.84C188.165 55.038 188.018 55.269 187.916 55.533C187.82 55.797 187.772 56.079 187.772 56.379C187.772 56.673 187.814 56.958 187.898 57.234C187.982 57.51 188.117 57.756 188.303 57.972C188.489 58.182 188.729 58.353 189.023 58.485C189.323 58.611 189.683 58.674 190.103 58.674C190.523 58.674 190.88 58.611 191.174 58.485C191.474 58.353 191.717 58.182 191.903 57.972C192.089 57.756 192.224 57.51 192.308 57.234C192.392 56.958 192.434 56.673 192.434 56.379C192.434 56.079 192.383 55.797 192.281 55.533C192.185 55.269 192.038 55.038 191.84 54.84C191.648 54.642 191.405 54.486 191.111 54.372C190.823 54.258 190.487 54.201 190.103 54.201ZM191.948 59.277C192.752 59.505 193.37 59.886 193.802 60.42C194.234 60.954 194.45 61.638 194.45 62.472C194.45 63.036 194.342 63.546 194.126 64.002C193.916 64.452 193.619 64.836 193.235 65.154C192.857 65.472 192.401 65.718 191.867 65.892C191.333 66.06 190.745 66.144 190.103 66.144C189.461 66.144 188.873 66.06 188.339 65.892C187.805 65.718 187.346 65.472 186.962 65.154C186.578 64.836 186.281 64.452 186.071 64.002C185.861 63.546 185.756 63.036 185.756 62.472C185.756 61.638 185.972 60.954 186.404 60.42C186.836 59.886 187.454 59.505 188.258 59.277C187.58 59.025 187.067 58.65 186.719 58.152C186.377 57.648 186.206 57.048 186.206 56.352C186.206 55.878 186.299 55.434 186.485 55.02C186.671 54.606 186.935 54.246 187.277 53.94C187.619 53.634 188.027 53.394 188.501 53.22C188.981 53.046 189.515 52.959 190.103 52.959C190.685 52.959 191.216 53.046 191.696 53.22C192.176 53.394 192.587 53.634 192.929 53.94C193.271 54.246 193.535 54.606 193.721 55.02C193.907 55.434 194 55.878 194 56.352C194 57.048 193.826 57.648 193.478 58.152C193.136 58.65 192.626 59.025 191.948 59.277ZM205.224 59.556C205.224 60.684 205.101 61.662 204.855 62.49C204.615 63.312 204.285 63.993 203.865 64.533C203.445 65.073 202.947 65.475 202.371 65.739C201.801 66.003 201.189 66.135 200.535 66.135C199.875 66.135 199.26 66.003 198.69 65.739C198.126 65.475 197.634 65.073 197.214 64.533C196.794 63.993 196.464 63.312 196.224 62.49C195.984 61.662 195.864 60.684 195.864 59.556C195.864 58.428 195.984 57.45 196.224 56.622C196.464 55.794 196.794 55.11 197.214 54.57C197.634 54.024 198.126 53.619 198.69 53.355C199.26 53.091 199.875 52.959 200.535 52.959C201.189 52.959 201.801 53.091 202.371 53.355C202.947 53.619 203.445 54.024 203.865 54.57C204.285 55.11 204.615 55.794 204.855 56.622C205.101 57.45 205.224 58.428 205.224 59.556ZM203.559 59.556C203.559 58.572 203.475 57.747 203.307 57.081C203.145 56.409 202.923 55.869 202.641 55.461C202.365 55.053 202.044 54.762 201.678 54.588C201.312 54.408 200.931 54.318 200.535 54.318C200.139 54.318 199.758 54.408 199.392 54.588C199.026 54.762 198.705 55.053 198.429 55.461C198.153 55.869 197.931 56.409 197.763 57.081C197.601 57.747 197.52 58.572 197.52 59.556C197.52 60.54 197.601 61.365 197.763 62.031C197.931 62.697 198.153 63.234 198.429 63.642C198.705 64.05 199.026 64.344 199.392 64.524C199.758 64.698 200.139 64.785 200.535 64.785C200.931 64.785 201.312 64.698 201.678 64.524C202.044 64.344 202.365 64.05 202.641 63.642C202.923 63.234 203.145 62.697 203.307 62.031C203.475 61.365 203.559 60.54 203.559 59.556Z" fill="white"/>
<mask id="path-4-inside-1_473_385" fill="white">
<rect x="127" y="109" width="34.2742" height="34.2742" rx="4"/>
</mask>
<rect x="127" y="109" width="34.2742" height="34.2742" rx="4" stroke="white" stroke-width="20" mask="url(#path-4-inside-1_473_385)"/>
<mask id="path-5-inside-2_473_385" fill="white">
<rect x="177.726" y="109" width="34.2742" height="34.2742" rx="4"/>
</mask>
<rect x="177.726" y="109" width="34.2742" height="34.2742" rx="4" stroke="white" stroke-width="20" mask="url(#path-5-inside-2_473_385)"/>
<mask id="path-6-inside-3_473_385" fill="white">
<rect x="127" y="159.726" width="34.2742" height="34.2742" rx="4"/>
</mask>
<rect x="127" y="159.726" width="34.2742" height="34.2742" rx="4" stroke="white" stroke-width="20" mask="url(#path-6-inside-3_473_385)"/>
<rect x="177.726" y="159.726" width="10.9677" height="10.9677" fill="white"/>
<rect x="188.694" y="170.694" width="10.9677" height="10.9677" fill="white"/>
<rect x="199.661" y="159.726" width="10.9677" height="10.9677" fill="white"/>
<path d="M177.726 181.661H188.694V192.629H177.726V181.661Z" fill="white"/>
<rect x="188.694" y="181.661" width="10.9677" height="10.9677" fill="white"/>
</svg>
