<svg width="36" height="30" viewBox="0 0 36 30" fill="none" xmlns="http://www.w3.org/2000/svg">
<path fill-rule="evenodd" clip-rule="evenodd" d="M33.364 26.7295C31.6761 28.4174 29.3869 29.3656 27 29.3656C24.6131 29.3656 22.3239 28.4174 20.636 26.7295C18.9482 25.0417 18 22.7525 18 20.3656C18 17.9786 18.9482 15.6894 20.636 14.0016C22.3239 12.3138 24.6131 11.3656 27 11.3656C29.3869 11.3656 31.6761 12.3138 33.364 14.0016C35.0518 15.6894 36 17.9786 36 20.3656C36 22.7525 35.0518 25.0417 33.364 26.7295ZM28.0607 23.8049C27.7794 23.5236 27.3978 23.3656 27 23.3656C26.6022 23.3656 26.2206 23.5236 25.9393 23.8049C25.658 24.0862 25.5 24.4677 25.5 24.8656C25.5 25.2634 25.658 25.6449 25.9393 25.9262C26.2206 26.2075 26.6022 26.3656 27 26.3656C27.3978 26.3656 27.7794 26.2075 28.0607 25.9262C28.342 25.6449 28.5 25.2634 28.5 24.8656C28.5 24.4677 28.342 24.0862 28.0607 23.8049ZM28 15.3656C28 14.8156 27.55 14.3656 27 14.3656C26.45 14.3656 26 14.8156 26 15.3656V20.3656C26 20.9156 26.45 21.3656 27 21.3656C27.55 21.3656 28 20.9156 28 20.3656V15.3656Z" fill="#FD7E14"/>
<path d="M2.975 16.1406L14.2688 26.6843C14.7375 27.1218 15.3562 27.3656 16 27.3656C16.6437 27.3656 17.2625 27.1218 17.7313 26.6843L17.8937 26.5343C16.7 24.7781 16 22.6531 16 20.3656C16 14.2906 20.925 9.36557 27 9.36557C28.7687 9.36557 30.4375 9.78432 31.9188 10.5218C31.975 10.1156 32 9.70932 32 9.29682V8.93432C32 4.56557 28.8438 0.840569 24.5375 0.121819C21.6875 -0.353181 18.7875 0.578069 16.75 2.61557L16 3.36557L15.25 2.61557C13.2125 0.578069 10.3125 -0.353181 7.4625 0.121819C3.15625 0.840569 0 4.56557 0 8.93432V9.29682C0 11.8906 1.075 14.3718 2.975 16.1406Z" fill="white"/>
</svg>
