<svg width="36" height="30" viewBox="0 0 36 30" fill="none" xmlns="http://www.w3.org/2000/svg">
<path fill-rule="evenodd" clip-rule="evenodd" d="M33.364 26.7295C31.6761 28.4174 29.3869 29.3656 27 29.3656C24.6131 29.3656 22.3239 28.4174 20.636 26.7295C18.9482 25.0417 18 22.7525 18 20.3656C18 17.9786 18.9482 15.6894 20.636 14.0016C22.3239 12.3138 24.6131 11.3656 27 11.3656C29.3869 11.3656 31.6761 12.3138 33.364 14.0016C35.0518 15.6894 36 17.9786 36 20.3656C36 22.7525 35.0518 25.0417 33.364 26.7295ZM28.4125 20.3656L30.7062 18.0718C31.0938 17.6843 31.0938 17.0468 30.7062 16.6593C30.3187 16.2718 29.6813 16.2718 29.2938 16.6593L27 18.9531L24.7062 16.6593C24.3187 16.2718 23.6813 16.2718 23.2938 16.6593C22.9062 17.0468 22.9062 17.6843 23.2938 18.0718L25.5875 20.3656L23.2938 22.6593C22.9062 23.0468 22.9062 23.6843 23.2938 24.0718C23.6813 24.4593 24.3187 24.4593 24.7062 24.0718L27 21.7781L29.2938 24.0718C29.6813 24.4593 30.3187 24.4593 30.7062 24.0718C31.0938 23.6843 31.0938 23.0468 30.7062 22.6593L28.4125 20.3656Z" fill="#DC3545"/>
<path d="M2.975 16.1406L14.2688 26.6843C14.7375 27.1218 15.3562 27.3656 16 27.3656C16.6437 27.3656 17.2625 27.1218 17.7313 26.6843L17.8937 26.5343C16.7 24.7781 16 22.6531 16 20.3656C16 14.2906 20.925 9.36557 27 9.36557C28.7687 9.36557 30.4375 9.78432 31.9188 10.5218C31.975 10.1156 32 9.70932 32 9.29682V8.93432C32 4.56557 28.8438 0.840569 24.5375 0.121819C21.6875 -0.353181 18.7875 0.578069 16.75 2.61557L16 3.36557L15.25 2.61557C13.2125 0.578069 10.3125 -0.353181 7.4625 0.121819C3.15625 0.840569 0 4.56557 0 8.93432V9.29682C0 11.8906 1.075 14.3718 2.975 16.1406Z" fill="white"/>
</svg>
