<svg width="36" height="30" viewBox="0 0 36 30" fill="none" xmlns="http://www.w3.org/2000/svg">
<path fill-rule="evenodd" clip-rule="evenodd" d="M36 20.3656C36 17.9786 35.0518 15.6894 33.364 14.0016C31.6761 12.3138 29.3869 11.3656 27 11.3656C24.6131 11.3656 22.3239 12.3138 20.636 14.0016C18.9482 15.6894 18 17.9786 18 20.3656C18 22.7525 18.9482 25.0417 20.636 26.7295C22.3239 28.4174 24.6131 29.3656 27 29.3656C29.3869 29.3656 31.6761 28.4174 33.364 26.7295C35.0518 25.0417 36 22.7525 36 20.3656ZM31.2062 19.0718C31.5938 18.6843 31.5938 18.0468 31.2062 17.6593C30.8187 17.2718 30.1813 17.2718 29.7938 17.6593L26 21.4531L24.2062 19.6593C23.8187 19.2718 23.1813 19.2718 22.7938 19.6593C22.4062 20.0468 22.4062 20.6843 22.7938 21.0718L25.2938 23.5718C25.6813 23.9593 26.3187 23.9593 26.7062 23.5718L31.2062 19.0718Z" fill="#28A745"/>
<path d="M2.975 16.1406L14.2688 26.6843C14.7375 27.1218 15.3562 27.3656 16 27.3656C16.6437 27.3656 17.2625 27.1218 17.7313 26.6843L17.8937 26.5343C16.7 24.7781 16 22.6531 16 20.3656C16 14.2906 20.925 9.36557 27 9.36557C28.7687 9.36557 30.4375 9.78432 31.9188 10.5218C31.975 10.1156 32 9.70932 32 9.29682V8.93432C32 4.56557 28.8438 0.840569 24.5375 0.121819C21.6875 -0.353181 18.7875 0.578069 16.75 2.61557L16 3.36557L15.25 2.61557C13.2125 0.578069 10.3125 -0.353181 7.4625 0.121819C3.15625 0.840569 0 4.56557 0 8.93432V9.29682C0 11.8906 1.075 14.3718 2.975 16.1406Z" fill="white" fill-opacity="0.8"/>
</svg>
