<?xml version="1.0" standalone="no"?>
<!DOCTYPE svg PUBLIC "-//W3C//DTD SVG 20010904//EN"
 "http://www.w3.org/TR/2001/REC-SVG-20010904/DTD/svg10.dtd">
<svg version="1.0" xmlns="http://www.w3.org/2000/svg"
 width="433.000000pt" height="433.000000pt" viewBox="0 0 433.000000 433.000000"
 preserveAspectRatio="xMidYMid meet">
<metadata>
Created by potrace 1.14, written by Peter Selinger 2001-2017
</metadata>
<g transform="translate(0.000000,433.000000) scale(0.100000,-0.100000)"
fill="#000000" stroke="none">
<path d="M355 4318 c-63 -22 -116 -71 -163 -148 l-27 -45 0 -1050 c0 -923 4
-1143 20 -1205 2 -8 7 -35 10 -60 3 -25 16 -85 27 -135 11 -49 19 -90 18 -90
-2 0 2 -9 8 -21 6 -11 13 -32 16 -45 8 -43 69 -193 110 -269 58 -109 58 -110
98 -172 236 -364 572 -670 953 -868 169 -87 327 -149 460 -179 28 -6 61 -14
75 -17 14 -4 90 -8 170 -10 121 -2 163 1 255 20 111 24 264 73 365 118 66 30
179 85 200 98 284 173 374 243 570 440 100 100 150 157 212 239 15 20 33 43
40 51 29 35 108 161 156 250 81 151 154 362 181 520 6 36 13 74 15 85 2 11 7
45 11 75 4 30 10 64 13 75 3 11 7 493 9 1070 l4 1050 -31 62 c-39 77 -105 138
-173 158 -44 13 -276 15 -1811 14 -1217 0 -1770 -4 -1791 -11z"/>
</g>
</svg>
